<svg width="146" height="146" viewBox="0 0 146 146" fill="none" xmlns="http://www.w3.org/2000/svg">
<ellipse cx="73.4951" cy="78.5" rx="72.5" ry="67.5" fill="#D7ECD9"/>
<path d="M84.0511 117.232C83.3685 117.232 82.9418 117.019 82.7711 116.592C82.6005 116.08 82.5151 114.757 82.5151 112.624V106.48C82.6005 104.432 82.7285 102.768 82.8991 101.488C83.0698 98.928 83.1551 95.088 83.1551 89.968C83.1551 88.6027 82.8991 87.7067 82.3871 87.28C81.9605 86.768 81.2778 86.512 80.3391 86.512L77.0111 86.64C73.0858 86.9813 69.6298 87.152 66.6431 87.152C65.2778 87.152 64.3391 87.1093 63.8271 87.024L60.7551 86.896C57.2565 86.896 53.8858 87.024 50.6431 87.28L45.6511 87.408C44.3711 87.408 43.5605 87.152 43.2191 86.64C42.8778 86.0427 42.7071 85.232 42.7071 84.208C42.7071 82.7573 42.7925 81.776 42.9631 81.264C43.2191 80.6667 43.8591 79.728 44.8831 78.448C46.4191 76.5707 48.2111 74.096 50.2591 71.024C51.2831 69.488 52.9471 67.2267 55.2511 64.24C58.4085 60.4853 62.5045 55.1947 67.5391 48.368C70.6965 43.9307 73.1711 40.3467 74.9631 37.616C76.8405 34.8853 78.2911 32.7947 79.3151 31.344L81.6191 27.888C82.6431 26.4373 83.7951 25.712 85.0751 25.712H85.9711C86.3978 25.712 86.7818 25.6267 87.1231 25.456C87.8058 25.5413 88.5738 25.6267 89.4271 25.712C90.2805 25.7973 90.8351 26.0533 91.0911 26.48C91.3471 26.9067 91.4751 27.76 91.4751 29.04C91.4751 30.064 91.3898 32.368 91.2191 35.952C90.7925 45.7653 90.5791 59.0347 90.5791 75.76C90.5791 77.6373 90.7071 78.8747 90.9631 79.472C91.2191 79.984 91.6885 80.24 92.3711 80.24C92.7125 80.24 93.4805 80.1973 94.6751 80.112C95.9551 79.9413 97.0218 79.856 97.8751 79.856C98.3018 79.856 98.5578 80.0693 98.6431 80.496C98.8138 80.9227 98.8991 81.5627 98.8991 82.416C98.8991 83.2693 98.9418 83.8667 99.0271 84.208C99.0271 84.3787 99.0271 84.5067 99.0271 84.592C99.1125 84.6773 99.1551 84.7627 99.1551 84.848C99.1551 85.2747 99.0271 85.616 98.7711 85.872C98.5151 86.128 98.2165 86.256 97.8751 86.256H97.2351C96.8085 86.256 96.2111 86.2987 95.4431 86.384C94.7605 86.4693 93.8645 86.512 92.7551 86.512C91.7311 86.512 91.0911 86.768 90.8351 87.28C90.5791 87.792 90.4511 88.6027 90.4511 89.712V90.352L90.3231 88.432C90.2378 88.432 90.1098 91.8453 89.9391 98.672C89.8538 105.499 89.8111 110.448 89.8111 113.52V114.8C89.8111 115.995 89.3418 116.72 88.4031 116.976C87.5498 117.232 86.6538 117.36 85.7151 117.36C84.8618 117.275 84.3071 117.232 84.0511 117.232ZM49.8751 81.392C50.1311 81.392 50.4725 81.3067 50.8991 81.136C51.4111 80.9653 52.0938 80.88 52.9471 80.88C54.1418 80.88 55.0805 80.9227 55.7631 81.008L59.4751 81.136C60.0725 81.136 61.6085 81.0933 64.0831 81.008C66.5578 80.8373 69.5445 80.752 73.0431 80.752H79.6991C80.8085 80.752 81.5765 80.4107 82.0031 79.728C82.4298 78.96 82.6858 77.6373 82.7711 75.76C82.9418 73.8827 83.0271 70.6827 83.0271 66.16V60.4L83.2831 54L83.5391 38.128C83.5391 37.36 83.5818 36.592 83.6671 35.824C83.8378 34.9707 83.9231 34.16 83.9231 33.392L83.7951 33.136V33.008C83.5391 33.008 82.0885 35.184 79.4431 39.536L76.4991 44.272L68.0511 56.048C65.6618 59.376 62.7605 63.1733 59.3471 67.44C59.3471 67.44 58.7071 68.208 57.4271 69.744C55.8058 72.304 53.8005 74.6507 51.4111 76.784C50.5578 77.552 49.9605 78.192 49.6191 78.704C49.3631 79.1307 49.2351 79.728 49.2351 80.496C49.2351 81.0933 49.4485 81.392 49.8751 81.392Z" fill="black"/>
</svg>
