<svg width="146" height="163" viewBox="0 0 146 163" fill="none" xmlns="http://www.w3.org/2000/svg">
<circle cx="73.4951" cy="90.5" r="72.5" fill="#D7ECD9"/>
<path d="M49.0761 120.232L59.1881 108.968C63.9668 103.507 67.8921 98.6427 70.9641 94.376C74.0361 90.1093 76.2975 86.3547 77.7481 83.112C79.2841 79.8693 80.0521 77.0533 80.0521 74.664C80.0521 71.592 79.1988 69.2027 77.4921 67.496C75.7855 65.7893 73.4388 64.936 70.4521 64.936C67.5508 64.936 64.6921 65.96 61.8761 68.008C59.0601 70.056 56.6708 72.8293 54.7081 76.328H53.5561L52.1481 70.568C53.5988 67.8373 55.4761 65.4053 57.7801 63.272C60.1695 61.1387 62.7295 59.4747 65.4601 58.28C68.2761 57 71.0495 56.36 73.7801 56.36C79.0708 56.36 83.2948 57.768 86.4521 60.584C89.6948 63.4 91.3161 67.112 91.3161 71.72C91.3161 74.28 90.4628 77.224 88.7561 80.552C87.1348 83.7947 84.3615 87.9333 80.4361 92.968C76.5108 98.0027 71.0495 104.445 64.0521 112.296L64.5641 113.192H84.1481C87.3055 113.192 89.7375 112.893 91.4441 112.296C93.2361 111.699 94.6441 110.589 95.6681 108.968C96.6921 107.261 97.6308 104.787 98.4841 101.544L103.604 100.904C103.604 100.904 103.433 101.501 103.092 102.696C102.836 103.891 102.495 105.469 102.068 107.432C101.727 109.395 101.343 111.571 100.916 113.96C100.489 116.349 100.148 118.696 99.8921 121L98.3561 121.896C98.3561 121.896 97.2895 121.853 95.1561 121.768C93.1081 121.768 90.4201 121.683 87.0921 121.512C83.7641 121.427 80.2228 121.341 76.4681 121.256C72.7135 121.171 69.1295 121.085 65.7161 121C62.3028 121 59.4868 121 57.2681 121L50.3561 122.536L49.0761 120.232Z" fill="black"/>
</svg>
