<svg width="146" height="157" viewBox="0 0 146 157" fill="none" xmlns="http://www.w3.org/2000/svg">
<ellipse cx="73.4951" cy="84.4246" rx="72.5" ry="72.4353" fill="#D7ECD9"/>
<path d="M56.3921 121.536L57.1601 115.648C60.3175 115.392 62.7068 114.837 64.3281 113.984C66.0348 113.131 67.1868 111.723 67.7841 109.76C68.3815 107.712 68.6801 104.811 68.6801 101.056V71.872C68.6801 68.6293 68.0828 66.624 66.8881 65.856C65.6935 65.0027 63.9868 64.576 61.7681 64.576C60.4028 64.576 58.9095 64.704 57.2881 64.96C55.7521 65.216 54.9841 65.344 54.9841 65.344L54.6001 64.96L55.1121 59.584C55.1121 59.584 55.8375 59.4987 57.2881 59.328C58.7388 59.1573 60.5308 58.944 62.6641 58.688C64.8828 58.3467 67.0588 58.0053 69.1921 57.664C73.4588 56.9813 76.4455 56.4693 78.1521 56.128C79.9441 55.7867 81.0108 55.5733 81.3521 55.488C81.7788 55.4027 82.0348 55.36 82.1201 55.36L82.8881 57.536C81.2668 58.9013 80.1148 60.3093 79.4321 61.76C78.7495 63.1253 78.3228 65.3013 78.1521 68.288C77.9815 72.8107 77.8108 77.5467 77.6401 82.496C77.5548 87.4453 77.4695 92.0107 77.3841 96.192C77.3841 100.288 77.3841 103.445 77.3841 105.664C77.3841 109.077 77.8108 111.381 78.6641 112.576C79.5175 113.771 81.1815 114.368 83.6561 114.368C85.1921 114.368 86.6855 114.325 88.1361 114.24C89.6721 114.069 90.4401 113.984 90.4401 113.984L90.6961 114.496L89.5441 120.384C89.5441 120.384 88.9468 120.341 87.7521 120.256C86.6428 120.256 85.1921 120.213 83.4001 120.128C81.6081 120.128 79.7308 120.085 77.7681 120C75.8055 120 74.0561 120 72.5201 120C70.8988 120 69.1495 120.085 67.2721 120.256C65.3948 120.427 63.6455 120.597 62.0241 120.768C60.4028 120.939 59.0375 121.109 57.9281 121.28C56.9041 121.451 56.3921 121.536 56.3921 121.536Z" fill="black"/>
</svg>
