<svg width="146" height="157" viewBox="0 0 146 157" fill="none" xmlns="http://www.w3.org/2000/svg">
<circle cx="73.4951" cy="84.5" r="72.5" fill="#D7ECD9"/>
<path d="M56.5061 133.44C53.6048 133.44 51.5141 132.715 50.2341 131.264C49.0395 129.813 48.3995 127.424 48.3141 124.096L48.9541 123.328C52.5381 124.096 55.9515 124.48 59.1941 124.48C63.4608 124.48 67.3008 123.712 70.7141 122.176C74.1275 120.725 76.8155 118.72 78.7781 116.16C80.8261 113.6 81.8501 110.699 81.8501 107.456C81.8501 103.104 79.9728 99.904 76.2181 97.856C72.5488 95.7227 66.7888 94.6133 58.9381 94.528L58.2981 93.888L57.6581 89.408L65.9781 87.36C69.3915 85.7387 72.1648 83.5627 74.2981 80.832C76.5168 78.016 77.6261 75.2 77.6261 72.384C77.6261 69.6533 76.6448 67.4773 74.6821 65.856C72.8048 64.2347 70.4581 63.424 67.6421 63.424C65.2528 63.424 62.6928 64.0213 59.9621 65.216C57.3168 66.4107 55.0128 67.9893 53.0501 69.952C52.8795 69.952 52.6661 69.952 52.4101 69.952C52.1541 69.952 51.9408 69.952 51.7701 69.952L50.4901 64.576C50.4901 64.576 51.1301 64.1067 52.4101 63.168C53.6901 62.2293 55.3541 61.1627 57.4021 59.968C59.5355 58.7733 61.8395 57.7067 64.3141 56.768C66.7888 55.8293 69.2208 55.36 71.6101 55.36C76.6448 55.36 80.6555 56.6827 83.6421 59.328C86.7141 61.888 88.2501 65.344 88.2501 69.696C88.2501 73.1093 86.9701 76.4373 84.4101 79.68C81.8501 82.9227 78.4368 85.6533 74.1701 87.872V88.512C79.9728 89.8773 84.2821 91.8827 87.0981 94.528C89.9995 97.1733 91.4501 100.459 91.4501 104.384C91.4501 107.797 90.4261 111.211 88.3781 114.624C86.3301 118.037 83.5568 121.152 80.0581 123.968C76.6448 126.869 72.8901 129.173 68.7941 130.88C64.6981 132.587 60.6021 133.44 56.5061 133.44Z" fill="black"/>
</svg>
