<svg width="32" height="32" viewBox="0 0 32 32" fill="none" xmlns="http://www.w3.org/2000/svg">
<path d="M6.96975 4.91667H30.2451L27.0784 16H8.67491M28.6618 22.3333H9.66178L6.49512 1.75H1.74512M11.2451 28.6667C11.2451 29.5411 10.5362 30.25 9.66178 30.25C8.78733 30.25 8.07845 29.5411 8.07845 28.6667C8.07845 27.7922 8.78733 27.0833 9.66178 27.0833C10.5362 27.0833 11.2451 27.7922 11.2451 28.6667ZM28.6618 28.6667C28.6618 29.5411 27.9529 30.25 27.0785 30.25C26.204 30.25 25.4951 29.5411 25.4951 28.6667C25.4951 27.7922 26.204 27.0833 27.0785 27.0833C27.9529 27.0833 28.6618 27.7922 28.6618 28.6667Z" stroke="#131A29" stroke-width="2" stroke-linecap="round" stroke-linejoin="round"/>
</svg>
