<svg width="33" height="33" viewBox="0 0 33 33" fill="none" xmlns="http://www.w3.org/2000/svg">
<path d="M13.3608 1.08378e-08C15.8513 -0.000100349 18.2922 0.696811 20.4082 2.01209C22.5241 3.32736 24.2307 5.20865 25.3356 7.44364C26.4405 9.67863 26.8999 12.1784 26.6613 14.6607C26.4228 17.1431 25.4958 19.5093 23.9856 21.4923L32.4356 29.9568C32.7551 30.2779 32.9402 30.7086 32.9541 31.1617C32.9679 31.6147 32.8093 32.056 32.51 32.3959C32.2106 32.7359 31.7932 32.949 31.3426 32.992C30.892 33.0349 30.442 32.9046 30.0839 32.6273L29.9164 32.4793L21.4629 24.0183C19.7758 25.3064 17.8069 26.1738 15.7186 26.5485C13.6303 26.9233 11.4825 26.7947 9.4537 26.1734C7.42485 25.5521 5.57305 24.456 4.05128 22.9757C2.52951 21.4954 1.38163 19.6735 0.702662 17.6608C0.0236951 15.6481 -0.166821 13.5025 0.146806 11.4014C0.460433 9.30031 1.26934 7.30421 2.50637 5.57827C3.7434 3.85233 5.37276 2.44617 7.26029 1.47614C9.14781 0.506117 11.2392 0.000112126 13.3608 1.08378e-08ZM13.3608 3.56778C10.7621 3.56778 8.26971 4.60147 6.43216 6.44147C4.5946 8.28146 3.56241 10.777 3.56241 13.3792C3.56241 15.9813 4.5946 18.4769 6.43216 20.3169C8.26971 22.1569 10.7621 23.1906 13.3608 23.1906C15.9595 23.1906 18.4514 22.1569 20.289 20.3169C22.1265 18.4769 23.1592 15.9813 23.1592 13.3792C23.1592 10.777 22.1265 8.28146 20.289 6.44147C18.4514 4.60147 15.9595 3.56778 13.3608 3.56778Z" fill="#707991"/>
</svg>
