<svg width="8" height="30" viewBox="0 0 8 30" fill="none" xmlns="http://www.w3.org/2000/svg">
<path d="M4.4361 7.81134C3.49112 7.81134 2.58467 7.43545 1.91647 6.76636C1.24827 6.09727 0.873047 5.18979 0.873047 4.24356C0.873047 3.29733 1.24827 2.38985 1.91647 1.72076C2.58467 1.05167 3.49112 0.675781 4.4361 0.675781C5.38107 0.675781 6.28708 1.05167 6.95528 1.72076C7.62348 2.38985 7.99915 3.29733 7.99915 4.24356C7.99915 5.18979 7.62348 6.09727 6.95528 6.76636C6.28708 7.43545 5.38107 7.81134 4.4361 7.81134ZM4.4361 18.5147C3.49112 18.5147 2.58467 18.1388 1.91647 17.4697C1.24827 16.8006 0.873047 15.8931 0.873047 14.9469C0.873047 14.0007 1.24827 13.0932 1.91647 12.4241C2.58467 11.755 3.49112 11.3791 4.4361 11.3791C5.38107 11.3791 6.28708 11.755 6.95528 12.4241C7.62348 13.0932 7.99915 14.0007 7.99915 14.9469C7.99915 15.8931 7.62348 16.8006 6.95528 17.4697C6.28708 18.1388 5.38107 18.5147 4.4361 18.5147ZM0.873047 25.6502C0.873047 26.5965 1.24827 27.5039 1.91647 28.173C2.58467 28.8421 3.49112 29.218 4.4361 29.218C5.38107 29.218 6.28708 28.8421 6.95528 28.173C7.62348 27.5039 7.99915 26.5965 7.99915 25.6502C7.99915 24.704 7.62348 23.7965 6.95528 23.1274C6.28708 22.4583 5.38107 22.0824 4.4361 22.0824C3.49112 22.0824 2.58467 22.4583 1.91647 23.1274C1.24827 23.7965 0.873047 24.704 0.873047 25.6502Z" fill="#707991"/>
</svg>
