<svg width="33" height="34" viewBox="0 0 33 34" fill="none" xmlns="http://www.w3.org/2000/svg">
<path d="M16.4993 0.748291C25.4758 0.748291 32.7526 8.02504 32.7526 17.0015C32.7526 25.9764 25.4758 33.2532 16.4993 33.2532C7.52284 33.2532 0.246094 25.9764 0.246094 17.0015C0.246094 8.02504 7.52284 0.748291 16.4993 0.748291ZM16.4993 3.18579C14.6725 3.16598 12.8599 3.50868 11.1664 4.19406C9.47297 4.87944 7.93223 5.89388 6.63342 7.17869C5.33461 8.46349 4.30351 9.99313 3.5998 11.6791C2.8961 13.365 2.53376 15.1738 2.53376 17.0007C2.53376 18.8276 2.8961 20.6364 3.5998 22.3224C4.30351 24.0083 5.33461 25.538 6.63342 26.8228C7.93223 28.1076 9.47297 29.122 11.1664 29.8074C12.8599 30.4928 14.6725 30.8355 16.4993 30.8157C20.1264 30.76 23.586 29.2801 26.1313 26.6955C28.6766 24.1109 30.1032 20.629 30.1032 17.0015C30.1032 13.3741 28.6766 9.89213 26.1313 7.30754C23.586 4.72294 20.1264 3.24305 16.4993 3.18742V3.18579ZM10.7501 21.5239C11.4338 22.3949 12.3068 23.0989 13.3029 23.5826C14.2989 24.0663 15.392 24.317 16.4993 24.3157C17.6053 24.3169 18.697 24.0668 19.6922 23.5843C20.6873 23.1018 21.5598 22.3995 22.2437 21.5304C22.4441 21.2768 22.7371 21.1132 23.0581 21.0755C23.3792 21.0379 23.702 21.1293 23.9557 21.3297C24.2093 21.5301 24.3729 21.8231 24.4106 22.1441C24.4482 22.4652 24.3567 22.788 24.1563 23.0417C23.2443 24.1996 22.0812 25.1353 20.7548 25.7783C19.4284 26.4212 17.9733 26.7545 16.4993 26.7532C15.0234 26.7544 13.5666 26.42 12.2389 25.7753C10.9113 25.1306 9.74759 24.1925 8.83584 23.0319C8.64441 22.7774 8.56023 22.458 8.60132 22.1422C8.64241 21.8263 8.80551 21.5391 9.0557 21.342C9.30589 21.1449 9.62329 21.0536 9.93997 21.0876C10.2566 21.1216 10.5474 21.2782 10.7501 21.5239ZM11.6243 11.7187C11.8958 11.711 12.1661 11.7578 12.4191 11.8564C12.6722 11.955 12.9029 12.1033 13.0976 12.2926C13.2924 12.4819 13.4472 12.7084 13.5529 12.9585C13.6586 13.2087 13.713 13.4775 13.713 13.7491C13.713 14.0207 13.6586 14.2895 13.5529 14.5397C13.4472 14.7898 13.2924 15.0163 13.0976 15.2056C12.9029 15.3949 12.6722 15.5432 12.4191 15.6418C12.1661 15.7404 11.8958 15.7872 11.6243 15.7795C11.0958 15.7646 10.5939 15.5441 10.2253 15.165C9.85674 14.7858 9.65054 14.2779 9.65054 13.7491C9.65054 13.2203 9.85674 12.7124 10.2253 12.3332C10.5939 11.9541 11.0958 11.7336 11.6243 11.7187ZM21.3743 11.7187C21.6458 11.711 21.9161 11.7578 22.1691 11.8564C22.4222 11.955 22.6529 12.1033 22.8476 12.2926C23.0424 12.4819 23.1972 12.7084 23.3029 12.9585C23.4086 13.2087 23.463 13.4775 23.463 13.7491C23.463 14.0207 23.4086 14.2895 23.3029 14.5397C23.1972 14.7898 23.0424 15.0163 22.8476 15.2056C22.6529 15.3949 22.4222 15.5432 22.1691 15.6418C21.9161 15.7404 21.6458 15.7872 21.3743 15.7795C20.8458 15.7646 20.3439 15.5441 19.9753 15.165C19.6067 14.7858 19.4005 14.2779 19.4005 13.7491C19.4005 13.2203 19.6067 12.7124 19.9753 12.3332C20.3439 11.9541 20.8458 11.7336 21.3743 11.7187Z" fill="#707991"/>
</svg>
