<svg width="80" height="80" viewBox="0 0 80 80" fill="none" xmlns="http://www.w3.org/2000/svg">
<circle cx="40" cy="40" r="37.5" fill="#DFA4B2" stroke="black" stroke-width="5"/>
<path d="M19.272 54.288C17.28 54.288 15.672 53.7 14.448 52.524C13.224 51.324 12.612 49.74 12.612 47.772V45.108C12.612 44.988 12.648 44.892 12.72 44.82C12.816 44.724 12.924 44.676 13.044 44.676H16.356C16.476 44.676 16.572 44.724 16.644 44.82C16.74 44.892 16.788 44.988 16.788 45.108V47.844C16.788 48.684 17.016 49.368 17.472 49.896C17.928 50.424 18.528 50.688 19.272 50.688C20.016 50.688 20.616 50.424 21.072 49.896C21.552 49.368 21.792 48.684 21.792 47.844V29.232C21.792 29.112 21.828 29.016 21.9 28.944C21.996 28.848 22.104 28.8 22.224 28.8H25.536C25.656 28.8 25.752 28.848 25.824 28.944C25.92 29.016 25.968 29.112 25.968 29.232V47.772C25.968 49.74 25.344 51.324 24.096 52.524C22.872 53.7 21.264 54.288 19.272 54.288ZM35.7369 54.288C33.7449 54.288 32.1729 53.76 31.0209 52.704C29.8929 51.648 29.3289 50.22 29.3289 48.42V41.184C29.3289 39.408 29.9049 37.992 31.0569 36.936C32.2089 35.856 33.7689 35.316 35.7369 35.316C37.7289 35.316 39.3009 35.856 40.4529 36.936C41.6049 37.992 42.1809 39.408 42.1809 41.184V48.42C42.1809 50.22 41.6049 51.648 40.4529 52.704C39.3249 53.76 37.7529 54.288 35.7369 54.288ZM35.7369 50.652C36.4089 50.652 36.9489 50.424 37.3569 49.968C37.7889 49.488 38.0049 48.864 38.0049 48.096V41.472C38.0049 40.728 37.7889 40.116 37.3569 39.636C36.9489 39.156 36.4089 38.916 35.7369 38.916C35.0649 38.916 34.5249 39.156 34.1169 39.636C33.7089 40.092 33.5049 40.704 33.5049 41.472V48.096C33.5049 48.864 33.7089 49.488 34.1169 49.968C34.5249 50.424 35.0649 50.652 35.7369 50.652ZM47.352 33.084C46.608 33.084 45.996 32.844 45.516 32.364C45.036 31.884 44.796 31.272 44.796 30.528C44.796 29.784 45.036 29.172 45.516 28.692C45.996 28.212 46.608 27.972 47.352 27.972C48.096 27.972 48.696 28.212 49.152 28.692C49.632 29.172 49.872 29.784 49.872 30.528C49.872 31.272 49.632 31.884 49.152 32.364C48.672 32.844 48.072 33.084 47.352 33.084ZM45.732 54C45.612 54 45.504 53.964 45.408 53.892C45.336 53.796 45.3 53.688 45.3 53.568V36.036C45.3 35.916 45.336 35.82 45.408 35.748C45.504 35.652 45.612 35.604 45.732 35.604H49.044C49.164 35.604 49.26 35.652 49.332 35.748C49.428 35.82 49.476 35.916 49.476 36.036V53.568C49.476 53.688 49.428 53.796 49.332 53.892C49.26 53.964 49.164 54 49.044 54H45.732ZM60.7744 35.316C62.3344 35.316 63.5104 35.844 64.3024 36.9C65.1184 37.932 65.5264 39.408 65.5264 41.328V53.568C65.5264 53.688 65.4784 53.796 65.3824 53.892C65.3104 53.964 65.2144 54 65.0944 54H61.7824C61.6624 54 61.5544 53.964 61.4584 53.892C61.3864 53.796 61.3504 53.688 61.3504 53.568V41.652C61.3504 40.788 61.1704 40.116 60.8104 39.636C60.4504 39.156 59.9344 38.916 59.2624 38.916C58.5664 38.916 58.0264 39.168 57.6424 39.672C57.2584 40.176 57.0664 40.872 57.0664 41.76V53.568C57.0664 53.688 57.0184 53.796 56.9224 53.892C56.8504 53.964 56.7544 54 56.6344 54H53.3224C53.2024 54 53.0944 53.964 52.9984 53.892C52.9264 53.796 52.8904 53.688 52.8904 53.568V36.036C52.8904 35.916 52.9264 35.82 52.9984 35.748C53.0944 35.652 53.2024 35.604 53.3224 35.604H56.6344C56.7544 35.604 56.8504 35.652 56.9224 35.748C57.0184 35.82 57.0664 35.916 57.0664 36.036V36.756C57.0664 36.828 57.0904 36.876 57.1384 36.9C57.2104 36.9 57.2824 36.852 57.3544 36.756C58.1704 35.796 59.3104 35.316 60.7744 35.316Z" fill="black"/>
</svg>
