<svg width="67" height="69" viewBox="0 0 67 69" fill="none" xmlns="http://www.w3.org/2000/svg">
<path d="M15.816 31.424C13 31.424 10.408 30.72 8.04 29.312C5.672 27.904 3.784 26.016 2.376 23.648C1.032 21.216 0.36 18.56 0.36 15.68C0.36 12.8 1.032 10.176 2.376 7.808C3.784 5.376 5.672 3.488 8.04 2.144C10.408 0.735998 13 0.0319996 15.816 0.0319996C18.568 0.0319996 21.128 0.735998 23.496 2.144C25.864 3.552 27.72 5.472 29.064 7.904C30.472 10.272 31.176 12.864 31.176 15.68C31.176 18.56 30.472 21.216 29.064 23.648C27.72 26.016 25.864 27.904 23.496 29.312C21.192 30.72 18.632 31.424 15.816 31.424ZM11.112 68C10.664 68 10.376 67.872 10.248 67.616C10.12 67.36 10.152 67.04 10.344 66.656L45.288 1.568C45.544 1.056 46.024 0.799995 46.728 0.799995H55.464C55.912 0.799995 56.2 0.927996 56.328 1.184C56.456 1.44 56.424 1.76 56.232 2.144L21.288 67.232C21.032 67.744 20.552 68 19.848 68H11.112ZM15.816 23.36C17.8 23.36 19.464 22.624 20.808 21.152C22.216 19.616 22.92 17.792 22.92 15.68C22.92 13.568 22.216 11.776 20.808 10.304C19.4 8.832 17.736 8.096 15.816 8.096C13.832 8.096 12.136 8.832 10.728 10.304C9.32 11.776 8.616 13.568 8.616 15.68C8.616 17.792 9.32 19.616 10.728 21.152C12.136 22.624 13.832 23.36 15.816 23.36ZM51.336 68.768C48.52 68.768 45.928 68.064 43.56 66.656C41.192 65.248 39.304 63.36 37.896 60.992C36.552 58.56 35.88 55.904 35.88 53.024C35.88 50.208 36.552 47.616 37.896 45.248C39.304 42.816 41.192 40.896 43.56 39.488C45.928 38.08 48.52 37.376 51.336 37.376C54.088 37.376 56.648 38.08 59.016 39.488C61.384 40.896 63.24 42.816 64.584 45.248C65.992 47.616 66.696 50.208 66.696 53.024C66.696 55.904 65.992 58.56 64.584 60.992C63.24 63.36 61.384 65.248 59.016 66.656C56.712 68.064 54.152 68.768 51.336 68.768ZM51.336 60.704C53.32 60.704 54.984 59.968 56.328 58.496C57.736 57.024 58.44 55.2 58.44 53.024C58.44 50.976 57.736 49.216 56.328 47.744C54.984 46.208 53.32 45.44 51.336 45.44C49.352 45.44 47.656 46.208 46.248 47.744C44.84 49.216 44.136 50.976 44.136 53.024C44.136 55.2 44.808 57.024 46.152 58.496C47.56 59.968 49.288 60.704 51.336 60.704Z" fill="black"/>
</svg>
