<svg width="32" height="29" viewBox="0 0 32 29" fill="none" xmlns="http://www.w3.org/2000/svg">
<path d="M5.49512 15.0001C5.49512 15.5524 5.94283 16.0001 6.49512 16.0001C7.0474 16.0001 7.49512 15.5524 7.49512 15.0001H5.49512ZM6.49512 11.8334V10.8334C5.94283 10.8334 5.49512 11.2812 5.49512 11.8334H6.49512ZM25.4951 11.8334H26.4951C26.4951 11.2812 26.0474 10.8334 25.4951 10.8334V11.8334ZM24.4951 15.0001C24.4951 15.5524 24.9428 16.0001 25.4951 16.0001C26.0474 16.0001 26.4951 15.5524 26.4951 15.0001H24.4951ZM11.9532 3.28849L11.4214 2.44164L11.9532 3.28849ZM14.9386 1.72812L14.7161 0.753175L14.9386 1.72812ZM20.037 3.28849L19.5052 4.13534L20.037 3.28849ZM17.0517 1.72812L17.2741 0.753175L17.0517 1.72812ZM4.33866 27.1491L3.88467 28.0401L4.33866 27.1491ZM2.26284 25.0732L1.37183 25.5272L2.26284 25.0732ZM29.7274 25.0732L30.6184 25.5272L29.7274 25.0732ZM27.6516 27.1491L28.1056 28.0401L27.6516 27.1491ZM30.0287 10.9079L29.0743 11.2063L30.0287 10.9079ZM26.687 7.46478L27.2189 6.61793L26.687 7.46478ZM29.1065 9.23978L29.8668 8.59021L29.1065 9.23978ZM1.96151 10.9079L1.00707 10.6095L1.96151 10.9079ZM5.30319 7.46478L4.77136 6.61793L5.30319 7.46478ZM2.8837 9.23978L2.1234 8.59021L2.8837 9.23978ZM13.1846 19.4598L12.6299 20.2918L12.6299 20.2918L13.1846 19.4598ZM18.8056 19.4598L19.3603 20.2918L19.3603 20.2918L18.8056 19.4598ZM15.2572 20.6071L15.4902 19.6346L15.2572 20.6071ZM16.7331 20.6071L16.5 19.6346H16.5L16.7331 20.6071ZM1.78812 11.8615L0.791649 11.7776L1.78812 11.8615ZM7.49512 15.0001V11.8334H5.49512V15.0001H7.49512ZM6.49512 12.8334H25.4951V10.8334H6.49512V12.8334ZM24.4951 11.8334V15.0001H26.4951V11.8334H24.4951ZM29.2451 13.9008V20.0668H31.2451V13.9008H29.2451ZM22.6451 26.6668H9.34512V28.6668H22.6451V26.6668ZM2.74512 20.0668V13.9008H0.745117V20.0668H2.74512ZM5.83502 8.31163L12.485 4.13534L11.4214 2.44164L4.77136 6.61793L5.83502 8.31163ZM19.5052 4.13534L26.1552 8.31163L27.2189 6.61793L20.5689 2.44164L19.5052 4.13534ZM12.485 4.13534C14.0134 3.1755 14.5797 2.8357 15.161 2.70307L14.7161 0.753175C13.7245 0.979418 12.8248 1.56024 11.4214 2.44164L12.485 4.13534ZM20.5689 2.44164C19.1654 1.56024 18.2657 0.979418 17.2741 0.753175L16.8292 2.70307C17.4106 2.8357 17.9768 3.1755 19.5052 4.13534L20.5689 2.44164ZM15.161 2.70307C15.71 2.57782 16.2802 2.57782 16.8292 2.70307L17.2741 0.753175C16.4323 0.561116 15.558 0.561116 14.7161 0.753175L15.161 2.70307ZM9.34512 26.6668C7.99849 26.6668 7.04866 26.666 6.30676 26.6054C5.57653 26.5457 5.13623 26.4331 4.79265 26.258L3.88467 28.0401C4.55718 28.3827 5.28998 28.529 6.14389 28.5987C6.98613 28.6675 8.03149 28.6668 9.34512 28.6668V26.6668ZM0.745117 20.0668C0.745117 21.3804 0.744339 22.4258 0.813153 23.268C0.882921 24.1219 1.02917 24.8547 1.37183 25.5272L3.15384 24.6192C2.97878 24.2757 2.86617 23.8354 2.80651 23.1051C2.74589 22.3632 2.74512 21.4134 2.74512 20.0668H0.745117ZM4.79265 26.258C4.08705 25.8985 3.51337 25.3248 3.15384 24.6192L1.37183 25.5272C1.9231 26.6091 2.80274 27.4888 3.88467 28.0401L4.79265 26.258ZM29.2451 20.0668C29.2451 21.4134 29.2443 22.3632 29.1837 23.1051C29.1241 23.8354 29.0115 24.2757 28.8364 24.6192L30.6184 25.5272C30.9611 24.8547 31.1073 24.1219 31.1771 23.268C31.2459 22.4258 31.2451 21.3804 31.2451 20.0668H29.2451ZM22.6451 28.6668C23.9587 28.6668 25.0041 28.6675 25.8463 28.5987C26.7003 28.529 27.4331 28.3827 28.1056 28.0401L27.1976 26.258C26.854 26.4331 26.4137 26.5457 25.6835 26.6054C24.9416 26.666 23.9917 26.6668 22.6451 26.6668V28.6668ZM28.8364 24.6192C28.4769 25.3248 27.9032 25.8985 27.1976 26.258L28.1056 28.0401C29.1875 27.4888 30.0671 26.6091 30.6184 25.5272L28.8364 24.6192ZM26.1552 8.31163C27.5087 9.16165 27.9978 9.48153 28.3462 9.88935L29.8668 8.59021C29.2731 7.89529 28.4633 7.39941 27.2189 6.61793L26.1552 8.31163ZM30.9832 10.6095C30.7513 9.86788 30.3716 9.18096 29.8668 8.59021L28.3462 9.88935C28.6754 10.2746 28.9231 10.7226 29.0743 11.2063L30.9832 10.6095ZM4.77136 6.61793C3.52698 7.39941 2.71711 7.89529 2.1234 8.59021L3.644 9.88935C3.99243 9.48153 4.48151 9.16165 5.83502 8.31163L4.77136 6.61793ZM2.91596 11.2063C3.06717 10.7226 3.31483 10.2746 3.644 9.88935L2.1234 8.59021C1.61868 9.18096 1.23893 9.86788 1.00707 10.6095L2.91596 11.2063ZM12.6299 20.2918C13.5803 20.9254 14.2602 21.3965 15.0241 21.5795L15.4902 19.6346C15.1563 19.5546 14.8204 19.3485 13.7393 18.6277L12.6299 20.2918ZM18.2509 18.6277C17.1698 19.3485 16.834 19.5546 16.5 19.6346L16.9661 21.5795C17.73 21.3965 18.4099 20.9254 19.3603 20.2918L18.2509 18.6277ZM15.0241 21.5795C15.6624 21.7325 16.3278 21.7325 16.9661 21.5795L16.5 19.6346C16.1681 19.7141 15.8221 19.7141 15.4902 19.6346L15.0241 21.5795ZM19.3603 20.2918L30.7568 12.6936L29.6474 11.0295L18.2509 18.6278L19.3603 20.2918ZM31.2451 13.9008C31.2451 13.023 31.2459 12.3397 31.1986 11.7776L29.2056 11.9455C29.2443 12.404 29.2451 12.9885 29.2451 13.9008H31.2451ZM31.1986 11.7776C31.1636 11.3626 31.1008 10.9858 30.9832 10.6095L29.0743 11.2063C29.1369 11.4065 29.1792 11.6322 29.2056 11.9455L31.1986 11.7776ZM1.23339 12.6936L12.6299 20.2918L13.7394 18.6278L2.34285 11.0295L1.23339 12.6936ZM2.74512 13.9008C2.74512 12.9885 2.74595 12.404 2.78459 11.9455L0.791649 11.7776C0.744285 12.3397 0.745117 13.023 0.745117 13.9008H2.74512ZM2.78459 11.9455C2.81099 11.6322 2.85336 11.4065 2.91596 11.2063L1.00707 10.6095C0.889433 10.9858 0.82662 11.3626 0.791649 11.7776L2.78459 11.9455Z" fill="#131A29"/>
</svg>
