<svg width="20" height="19" viewBox="0 0 20 19" fill="none" xmlns="http://www.w3.org/2000/svg">
<path d="M9.08281 18.8L8.72281 18.56C8.72281 18.56 8.72281 18.32 8.72281 17.84C8.72281 17.3333 8.72281 16.6933 8.72281 15.92C8.74948 15.12 8.76281 14.2533 8.76281 13.32C8.76281 12.3867 8.76281 11.48 8.76281 10.6C7.88281 10.6 6.97615 10.6 6.04281 10.6C5.13615 10.6 4.28281 10.6133 3.48281 10.64C2.68281 10.64 2.04281 10.64 1.56281 10.64C1.08281 10.64 0.842813 10.64 0.842813 10.64L0.602813 10.28L1.04281 8.32C1.04281 8.32 1.44281 8.32 2.24281 8.32C3.04281 8.32 4.04281 8.33333 5.24281 8.36C6.44281 8.36 7.61615 8.36 8.76281 8.36L8.80281 0.319999L10.8428 0L11.2428 0.239999C11.2428 0.239999 11.2295 0.506666 11.2028 1.04C11.1761 1.57333 11.1495 2.26667 11.1228 3.12C11.0961 3.94667 11.0695 4.82667 11.0428 5.76C11.0161 6.69333 11.0028 7.56 11.0028 8.36C11.8028 8.36 12.6695 8.34667 13.6028 8.32C14.5361 8.29333 15.4295 8.26667 16.2828 8.24C17.1361 8.21333 17.8295 8.18667 18.3628 8.16C18.8961 8.13333 19.1628 8.12 19.1628 8.12L19.4028 8.52L19.0828 10.56L11.0028 10.6C11.0028 11.7733 11.0028 12.96 11.0028 14.16C11.0295 15.36 11.0428 16.36 11.0428 17.16C11.0428 17.96 11.0428 18.36 11.0428 18.36L9.08281 18.8Z" fill="black"/>
</svg>
