<svg width="32" height="32" viewBox="0 0 32 32" fill="none" xmlns="http://www.w3.org/2000/svg">
<path d="M20.6249 10.3409C20.8515 10.8445 21.4435 11.0691 21.9472 10.8425C22.4508 10.6158 22.6753 10.0238 22.4487 9.52017L20.6249 10.3409ZM9.66178 22.125C9.1095 22.125 8.66178 22.5727 8.66178 23.125C8.66178 23.6773 9.1095 24.125 9.66178 24.125V22.125ZM22.3285 24.125C22.8807 24.125 23.3285 23.6773 23.3285 23.125C23.3285 22.5727 22.8807 22.125 22.3285 22.125V24.125ZM9.66178 15.7917C9.1095 15.7917 8.66178 16.2394 8.66178 16.7917C8.66178 17.344 9.1095 17.7917 9.66178 17.7917V15.7917ZM19.1618 17.7917C19.7141 17.7917 20.1618 17.344 20.1618 16.7917C20.1618 16.2394 19.7141 15.7917 19.1618 15.7917V17.7917ZM29.2451 16C29.2451 23.3178 23.3129 29.25 15.9951 29.25V31.25C24.4175 31.25 31.2451 24.4223 31.2451 16H29.2451ZM15.9951 29.25C8.67734 29.25 2.74512 23.3178 2.74512 16H0.745117C0.745117 24.4223 7.57277 31.25 15.9951 31.25V29.25ZM2.74512 16C2.74512 8.68223 8.67734 2.75 15.9951 2.75V0.75C7.57277 0.75 0.745117 7.57766 0.745117 16H2.74512ZM15.9951 2.75C23.3129 2.75 29.2451 8.68223 29.2451 16H31.2451C31.2451 7.57766 24.4175 0.75 15.9951 0.75V2.75ZM13.8285 12.5694C13.8285 10.1052 15.6039 8.29167 17.5785 8.29167V6.29167C14.3063 6.29167 11.8285 9.20404 11.8285 12.5694H13.8285ZM17.5785 8.29167C18.7815 8.29167 20 8.95241 20.6249 10.3409L22.4487 9.52017C21.4902 7.39018 19.5421 6.29167 17.5785 6.29167V8.29167ZM11.8285 12.5694V16.7917H13.8285V12.5694H11.8285ZM11.8285 16.7917V19.6065H13.8285V16.7917H11.8285ZM11.8285 19.6065C11.8285 20.3313 11.6671 20.808 11.4762 21.1261C11.2844 21.4458 11.0293 21.6611 10.7595 21.811C10.4839 21.9641 10.1982 22.0453 9.97449 22.0867C9.86473 22.1071 9.77581 22.1167 9.71874 22.1213C9.69037 22.1235 9.67043 22.1245 9.66034 22.1248C9.65531 22.125 9.65278 22.1251 9.65295 22.1251C9.65304 22.1251 9.6538 22.125 9.65526 22.125C9.65599 22.125 9.6569 22.125 9.65799 22.125C9.65853 22.125 9.65912 22.125 9.65975 22.125C9.66007 22.125 9.66058 22.125 9.66073 22.125C9.66125 22.125 9.66178 22.125 9.66178 23.125C9.66178 24.125 9.66234 24.125 9.66291 24.125C9.66311 24.125 9.66369 24.125 9.66411 24.125C9.66493 24.125 9.66581 24.125 9.66674 24.125C9.66859 24.125 9.67064 24.125 9.6729 24.1249C9.6774 24.1249 9.68271 24.1248 9.68879 24.1247C9.70094 24.1245 9.7162 24.1241 9.73436 24.1235C9.77065 24.1221 9.81874 24.1196 9.87697 24.115C9.99307 24.1058 10.1515 24.088 10.3387 24.0533C10.7087 23.9848 11.2147 23.846 11.7308 23.5593C12.2526 23.2694 12.7892 22.8251 13.1912 22.1551C13.594 21.4837 13.8285 20.6409 13.8285 19.6065H11.8285ZM9.66178 24.125H22.3285V22.125H9.66178V24.125ZM9.66178 17.7917H12.8285V15.7917H9.66178V17.7917ZM12.8285 17.7917H19.1618V15.7917H12.8285V17.7917Z" fill="#131A29"/>
</svg>
