<svg width="50" height="49" viewBox="0 0 50 49" fill="none" xmlns="http://www.w3.org/2000/svg">
<path d="M49.2979 44.0239L40.0285 35.1762C43.6266 30.8592 45.369 25.3797 44.8976 19.8643C44.4261 14.349 41.7766 9.21711 37.4938 5.52386C33.2109 1.83061 27.6203 -0.143268 21.8716 0.00810461C16.1228 0.159477 10.6527 2.42459 6.58619 6.33769C2.51966 10.2508 0.16573 15.5144 0.0084224 21.0463C-0.148885 26.5782 1.90239 31.9578 5.74045 36.0791C9.57851 40.2003 14.9116 42.7499 20.6432 43.2036C26.3748 43.6572 32.0692 41.9805 36.5555 38.5181L45.7501 47.3658C45.9823 47.5911 46.2587 47.77 46.5631 47.892C46.8676 48.0141 47.1942 48.0769 47.524 48.0769C47.8538 48.0769 48.1804 48.0141 48.4849 47.892C48.7893 47.77 49.0657 47.5911 49.2979 47.3658C49.7483 46.9174 50 46.3183 50 45.6948C50 45.0713 49.7483 44.4722 49.2979 44.0239ZM22.5389 38.5181C19.0797 38.5181 15.6983 37.5311 12.8221 35.6818C9.946 33.8326 7.70431 31.2041 6.38057 28.1289C5.05682 25.0537 4.71047 21.6698 5.38531 18.4051C6.06015 15.1405 7.72587 12.1417 10.1718 9.78804C12.6178 7.43437 15.7341 5.83149 19.1268 5.18211C22.5195 4.53274 26.036 4.86602 29.2318 6.13982C32.4276 7.41362 35.1591 9.57073 37.0809 12.3384C39.0027 15.106 40.0285 18.3598 40.0285 21.6884C40.0285 26.152 38.1858 30.4327 34.9059 33.5888C31.6259 36.745 27.1774 38.5181 22.5389 38.5181Z" fill="black"/>
</svg>
