<svg width="29" height="30" viewBox="0 0 29 30" fill="none" xmlns="http://www.w3.org/2000/svg">
<path d="M15.689 15.2872L4.70486 17.1188C4.57857 17.1399 4.46007 17.1939 4.36125 17.2753C4.26244 17.3567 4.1868 17.4627 4.14194 17.5826L0.354649 27.7282C-0.00701731 28.6616 0.968608 29.5511 1.86402 29.1034L28.114 15.9784C28.2958 15.8876 28.4488 15.748 28.5557 15.5752C28.6625 15.4023 28.7192 15.2031 28.7192 14.9999C28.7192 14.7967 28.6625 14.5975 28.5557 14.4246C28.4488 14.2518 28.2958 14.1121 28.114 14.0213L1.86402 0.896347C0.968608 0.448638 -0.00701731 1.33968 0.354649 2.27156L4.1434 12.4172C4.18805 12.5374 4.26359 12.6437 4.36242 12.7253C4.46125 12.807 4.57987 12.8612 4.70632 12.8824L15.6905 14.7126C15.7581 14.7244 15.8193 14.7597 15.8635 14.8123C15.9076 14.8648 15.9318 14.9313 15.9318 14.9999C15.9318 15.0685 15.9076 15.1349 15.8635 15.1875C15.8193 15.24 15.7581 15.2753 15.6905 15.2872H15.689Z" fill="#F3DDF2"/>
</svg>
