<svg width="291" height="58" viewBox="0 0 291 58" fill="none" xmlns="http://www.w3.org/2000/svg">
<path d="M29.0029 0.809017L35.2761 20.1158L35.3322 20.2885H35.5138L55.8141 20.2885L39.3909 32.2207L39.2439 32.3275L39.3 32.5002L45.5732 51.807L29.1499 39.8748L29.0029 39.768L28.856 39.8748L12.4327 51.807L18.7058 32.5002L18.762 32.3275L18.615 32.2207L2.19171 20.2885L22.492 20.2885H22.6737L22.7298 20.1158L29.0029 0.809017Z" fill="#F5D5CB" stroke="#353535" stroke-width="0.5"/>
<path d="M87.0029 0.809017L93.2761 20.1158L93.3322 20.2885H93.5138L113.814 20.2885L97.3909 32.2207L97.2439 32.3275L97.3 32.5002L103.573 51.807L87.1499 39.8748L87.0029 39.768L86.856 39.8748L70.4327 51.807L76.7058 32.5002L76.762 32.3275L76.615 32.2207L60.1917 20.2885L80.492 20.2885H80.6737L80.7298 20.1158L87.0029 0.809017Z" fill="#F5D5CB" stroke="#353535" stroke-width="0.5"/>
<path d="M145.003 0.809017L151.276 20.1158L151.332 20.2885H151.514L171.814 20.2885L155.391 32.2207L155.244 32.3275L155.3 32.5002L161.573 51.807L145.15 39.8748L145.003 39.768L144.856 39.8748L128.433 51.807L134.706 32.5002L134.762 32.3275L134.615 32.2207L118.192 20.2885L138.492 20.2885H138.674L138.73 20.1158L145.003 0.809017Z" fill="#F5D5CB" stroke="#353535" stroke-width="0.5"/>
<path d="M203.003 0.809017L209.276 20.1158L209.332 20.2885H209.514L229.814 20.2885L213.391 32.2207L213.244 32.3275L213.3 32.5002L219.573 51.807L203.15 39.8748L203.003 39.768L202.856 39.8748L186.433 51.807L192.706 32.5002L192.762 32.3275L192.615 32.2207L176.192 20.2885L196.492 20.2885H196.674L196.73 20.1158L203.003 0.809017Z" fill="#F5D5CB" stroke="#353535" stroke-width="0.5"/>
<path d="M261.003 0.809017L267.276 20.1158L267.332 20.2885H267.514L287.814 20.2885L271.391 32.2207L271.244 32.3275L271.3 32.5002L277.573 51.807L261.15 39.8748L261.003 39.768L260.856 39.8748L244.433 51.807L250.706 32.5002L250.762 32.3275L250.615 32.2207L234.192 20.2885L254.492 20.2885H254.674L254.73 20.1158L261.003 0.809017Z" fill="#F5D5CB" stroke="#353535" stroke-width="0.5"/>
</svg>
